<svg width="152" height="39" viewBox="0 0 152 39" fill="none" xmlns="http://www.w3.org/2000/svg">
<path d="M53.061 24.7767H61.947V22.357H55.9959V10.8953H53.061V24.7767Z" fill="#CDCDCD"/>
<path d="M67.9678 24.98C71.1264 24.98 73.0921 22.8178 73.0921 19.6118C73.0921 16.3854 71.1264 14.23 67.9678 14.23C64.8093 14.23 62.8438 16.3854 62.8438 19.6118C62.8438 22.8178 64.8093 24.98 67.9678 24.98ZM67.9814 22.7432C66.5241 22.7432 65.7786 21.4079 65.7786 19.5914C65.7786 17.7749 66.5241 16.4329 67.9814 16.4329C69.4116 16.4329 70.1571 17.7749 70.1571 19.5914C70.1571 21.4079 69.4116 22.7432 67.9814 22.7432Z" fill="#CDCDCD"/>
<path d="M79.0872 28.8977C82.0628 28.8977 84.1775 27.542 84.1775 24.8783V14.3656H81.3104V16.1143H81.202C80.8156 15.267 79.9684 14.23 78.2264 14.23C75.9422 14.23 74.0105 16.0059 74.0105 19.5508C74.0105 23.0143 75.888 24.6275 78.2332 24.6275C79.8938 24.6275 80.8224 23.7938 81.202 22.933H81.324V24.8376C81.324 26.2678 80.4089 26.8236 79.155 26.8236C77.8807 26.8236 77.2368 26.2678 76.9996 25.6374L74.3291 25.9967C74.6747 27.6369 76.2811 28.8977 79.0872 28.8977ZM79.1482 22.4585C77.7316 22.4585 76.9589 21.3334 76.9589 19.5372C76.9589 17.7681 77.7181 16.5278 79.1482 16.5278C80.5513 16.5278 81.3375 17.7139 81.3375 19.5372C81.3375 21.374 80.5377 22.4585 79.1482 22.4585Z" fill="#CDCDCD"/>
<path d="M90.6066 24.98C93.7652 24.98 95.7308 22.8178 95.7308 19.6118C95.7308 16.3854 93.7652 14.23 90.6066 14.23C87.4481 14.23 85.4824 16.3854 85.4824 19.6118C85.4824 22.8178 87.4481 24.98 90.6066 24.98ZM90.6202 22.7432C89.1629 22.7432 88.4173 21.4079 88.4173 19.5914C88.4173 17.7749 89.1629 16.4329 90.6202 16.4329C92.0503 16.4329 92.7959 17.7749 92.7959 19.5914C92.7959 21.4079 92.0503 22.7432 90.6202 22.7432Z" fill="#CDCDCD"/>
<path d="M97.0357 24.7767H99.9231V14.3657H97.0357V24.7767ZM98.4862 13.0236C99.347 13.0236 100.052 12.3662 100.052 11.5596C100.052 10.7598 99.347 10.1023 98.4862 10.1023C97.6322 10.1023 96.9272 10.7598 96.9272 11.5596C96.9272 12.3662 97.6322 13.0236 98.4862 13.0236Z" fill="#CDCDCD"/>
<path d="M101.664 28.6808H104.551V23.1092H104.639C105.039 23.9768 105.913 24.9461 107.594 24.9461C109.967 24.9461 111.817 23.0686 111.817 19.5846C111.817 16.0059 109.885 14.23 107.601 14.23C105.859 14.23 105.026 15.267 104.639 16.1143H104.51V14.3656H101.664V28.6808ZM104.49 19.5711C104.49 17.7139 105.276 16.5278 106.679 16.5278C108.11 16.5278 108.869 17.7681 108.869 19.5711C108.869 21.3876 108.096 22.6483 106.679 22.6483C105.29 22.6483 104.49 21.4283 104.49 19.5711Z" fill="#CDCDCD"/>
<path d="M121.832 17.3343C121.574 15.4162 120.029 14.23 117.399 14.23C114.735 14.23 112.98 15.4636 112.986 17.4699C112.98 19.0289 113.962 20.0388 115.996 20.4455L117.799 20.8047C118.707 20.9877 119.121 21.3198 119.134 21.8417C119.121 22.4585 118.45 22.8991 117.44 22.8991C116.409 22.8991 115.725 22.4585 115.549 21.6113L112.709 21.7604C112.98 23.7531 114.674 24.98 117.433 24.98C120.13 24.98 122.062 23.604 122.069 21.5503C122.062 20.0456 121.079 19.1441 119.06 18.7306L117.175 18.351C116.206 18.1409 115.847 17.8088 115.854 17.3072C115.847 16.6837 116.552 16.277 117.446 16.277C118.45 16.277 119.046 16.826 119.188 17.497L121.832 17.3343Z" fill="#CDCDCD"/>
<path d="M129.991 20.3439C129.998 21.7402 129.042 22.4722 128.005 22.4722C126.914 22.4722 126.209 21.7063 126.202 20.4794V14.3657H123.315V20.9946C123.321 23.4279 124.745 24.9123 126.839 24.9123C128.405 24.9123 129.53 24.1057 129.998 22.8856H130.106V24.7767H132.878V14.3657H129.991V20.3439Z" fill="#CDCDCD"/>
<path d="M134.615 24.7766H137.503V18.5273C137.503 17.375 138.235 16.6091 139.197 16.6091C140.146 16.6091 140.783 17.2598 140.783 18.2833V24.7766H143.583V18.4188C143.583 17.3411 144.2 16.6091 145.25 16.6091C146.172 16.6091 146.863 17.1852 146.863 18.3443V24.7766H149.744V17.7749C149.744 15.5178 148.402 14.23 146.463 14.23C144.938 14.23 143.752 15.0095 143.325 16.2024H143.217C142.885 14.9959 141.82 14.23 140.39 14.23C138.987 14.23 137.923 14.9756 137.489 16.2024H137.367V14.3656H134.615V24.7766Z" fill="#CDCDCD"/>
<path d="M17.1229 2H26.1217L22.5096 12.0943C16.152 13.2115 11.2894 19.3625 11.2894 26.783C11.2894 30.1305 12.279 33.2197 13.9489 35.7049H2L12.9236 5.17808C13.6104 3.25863 15.2735 2 17.1229 2Z" fill="#CDCDCD"/>
<path d="M26.1216 2L23.583 9.09426L22.8181 2H26.1216Z" fill="#CDCDCD"/>
<path d="M31.8169 2H22.8181L26.415 12.0517C32.8991 13.0452 37.8942 19.262 37.8942 26.783C37.8942 30.1305 36.9046 33.2197 35.2347 35.7049H46.9398L36.0162 5.17809C35.3294 3.25863 33.6663 2 31.8169 2Z" fill="#CDCDCD"/>
<path d="M15.518 34.7334C13.9802 32.5434 13.0632 29.7829 13.0632 26.7829C13.0632 19.6655 18.2248 13.8958 24.5919 13.8958C30.9591 13.8958 36.1207 19.6655 36.1207 26.7829C36.1207 29.7829 35.2037 32.5434 33.6659 34.7334C31.1414 32.854 27.9986 31.7395 24.5919 31.7395C21.1853 31.7395 18.0425 32.854 15.518 34.7334Z" fill="#CDCDCD"/>
</svg>
