<svg width="70" height="44" viewBox="0 0 70 44" fill="none" xmlns="http://www.w3.org/2000/svg">
<g clip-path="url(#clip0_1021_80)">
<path d="M65.5268 5.40859C65.5268 5.45989 65.5268 5.52402 65.5137 5.5625C65.4481 6.06271 65.4481 6.56292 65.4874 7.07596C65.5137 7.20422 65.5399 7.33248 65.6449 7.43509C65.8154 7.62747 66.0777 7.589 66.1827 7.35813C66.2352 7.2427 66.2352 7.12726 66.2089 7.01183C66.0777 6.52444 66.0515 6.01141 66.0384 5.51119C66.0384 5.48554 66.0384 5.44706 66.0384 5.40859C66.1827 5.39576 66.3139 5.38293 66.4319 5.38293C66.5238 5.37011 66.6025 5.35728 66.6681 5.3188C66.8648 5.2162 66.8648 4.99816 66.6549 4.89555C66.5762 4.85707 66.4713 4.84424 66.3795 4.84424C66.0515 4.85707 65.7236 4.85707 65.3956 4.85707C65.2776 4.85707 65.1595 4.8699 65.0414 4.88272C64.9758 4.89555 64.8971 4.89555 64.8447 4.93403C64.7528 4.9725 64.7004 5.03663 64.7004 5.12641C64.7135 5.2162 64.7528 5.2675 64.8447 5.30598C64.8971 5.34446 64.9627 5.35728 65.0283 5.35728C65.1857 5.37011 65.3563 5.39576 65.5268 5.40859ZM69.1342 5.99858C69.1342 6.01141 69.1473 6.02423 69.1473 6.02423C69.1998 6.37053 69.2523 6.70401 69.2916 7.03748C69.3048 7.15291 69.3179 7.25552 69.3966 7.3453C69.5671 7.56334 69.8295 7.53769 69.9475 7.30683C70 7.19139 70.0131 7.07596 69.9869 6.9477C69.9082 6.56292 69.8688 6.17814 69.7901 5.80619C69.7376 5.57532 69.6721 5.35728 69.6065 5.15207C69.5671 5.02381 69.4753 4.93402 69.3179 4.9212C69.1605 4.89555 69.0424 4.9725 68.9768 5.08794C68.8981 5.19054 68.8325 5.29315 68.78 5.40859C68.6882 5.6138 68.6095 5.81902 68.5046 6.01141C68.4914 6.06271 68.4783 6.10119 68.4521 6.13966C68.439 6.11401 68.4259 6.10119 68.4259 6.10119C68.2553 5.78054 68.0979 5.45989 67.9274 5.15207C67.9011 5.12641 67.888 5.10076 67.8749 5.07511C67.7962 4.95968 67.7044 4.89555 67.5601 4.89555C67.4289 4.90837 67.3239 4.98533 67.2584 5.10076C67.2321 5.15207 67.2321 5.19054 67.219 5.24185C67.1665 5.65228 67.1009 6.06271 67.0485 6.47314C67.0222 6.70401 67.0091 6.93487 67.0091 7.16574C66.996 7.21704 67.0091 7.28117 67.0353 7.33248C67.0616 7.43508 67.1403 7.49922 67.2452 7.51204C67.3764 7.52487 67.4682 7.48639 67.5076 7.38378C67.5469 7.30683 67.5601 7.2427 67.5732 7.17857C67.6257 6.9477 67.665 6.72966 67.7044 6.51162C67.7306 6.38336 67.7437 6.28075 67.7831 6.13966C67.8093 6.19097 67.8355 6.22945 67.8618 6.26792C67.9798 6.42184 68.0979 6.57575 68.2422 6.70401C68.3865 6.80661 68.5046 6.79379 68.6226 6.67835C68.6489 6.6527 68.662 6.63988 68.6882 6.61422C68.8063 6.43466 68.9506 6.2551 69.0686 6.07553C69.0949 6.04988 69.108 6.02423 69.1342 5.99858Z" fill="#CDCDCD"/>
<path d="M38.9088 5.66053C38.8176 5.90428 38.8002 6.07989 38.8423 6.22585C38.8888 6.42433 39.0095 6.48931 39.1733 6.43883C40.7141 6.0663 44.0928 7.1237 45.3437 7.41841C45.6387 7.48029 45.8787 7.10794 45.6774 6.7741C45.3836 6.4508 42.0064 5.06663 40.7178 4.99116C40.2127 4.96325 39.3097 4.83661 38.9088 5.66053Z" fill="#CDCDCD"/>
<path d="M52.1133 1.17977C52.2775 1.27244 52.3693 1.36084 52.4146 1.45961C52.4821 1.58917 52.4465 1.67881 52.3331 1.72455C51.3146 2.21057 49.9593 4.30298 49.4122 5.02463C49.2796 5.19064 48.9737 5.09417 48.9275 4.82117C48.937 4.51249 50.1384 2.24176 50.8089 1.62329C51.0724 1.38182 51.5077 0.908026 52.1133 1.17977Z" fill="#CDCDCD"/>
<path d="M44.0022 0.149796C44.1995 0.00441888 44.4045 -0.0465256 44.5092 0.0479512C46.0459 1.3329 46.8608 3.36773 47.3654 5.23057C47.3844 5.27397 47.3856 5.33625 47.3704 5.40122C47.3641 5.45675 47.3226 5.51541 47.2567 5.5608C47.1863 5.61091 47.1257 5.62617 47.0972 5.58299C46.4237 4.68732 42.577 1.20242 44.0022 0.149796Z" fill="#CDCDCD"/>
<path d="M11.461 22.4277C11.8293 22.1596 12.2297 21.9364 12.6534 21.7632C13.0967 21.6393 13.5692 21.6598 13.9995 21.8218C14.4297 21.9838 14.7944 22.2783 15.0382 22.6609C15.2563 23.0425 15.3416 23.4831 15.2814 23.9163C15.2212 24.3494 15.0187 24.7517 14.7043 25.0626C14.4606 25.3146 14.1839 25.5341 13.8816 25.7155C12.5342 26.5666 11.1748 27.371 9.81547 28.2221C9.53732 28.4351 9.24225 28.6262 8.93308 28.7934C8.46281 29.0227 7.92537 29.0841 7.41368 28.967C6.902 28.85 6.44826 28.5617 6.13092 28.1522C5.89369 27.8622 5.69348 27.5451 5.53471 27.2078C4.24691 24.5613 2.91142 21.9264 1.67131 19.2332C1.09895 18.0674 0.633913 16.7266 0.180798 15.4325C-0.0152406 15.0565 -0.0535225 14.6206 0.0741037 14.2174C0.20173 13.8142 0.485195 13.4756 0.864201 13.2736C1.24321 13.0716 1.68785 13.0222 2.10357 13.1358C2.51929 13.2494 2.87329 13.5171 3.09027 13.8819C3.75722 14.7485 4.34761 15.669 4.85504 16.6334C6.14284 18.9651 7.37103 21.2968 8.61113 23.5586C8.68334 23.6836 8.76296 23.8042 8.84961 23.92C9.783 23.5363 10.6609 23.0346 11.461 22.4277Z" fill="#CDCDCD"/>
<path d="M24.7761 21.6142C21.8309 24.9835 16.8943 24.1324 14.4141 19.7954C12.6493 16.7175 12.3393 11.6343 16.1789 8.42819C16.9988 7.75696 17.9792 7.29971 19.0287 7.09909C20.3155 6.91872 21.6277 7.14068 22.7777 7.73326C23.9277 8.32584 24.8567 9.2587 25.432 10.3985C27.5306 14.1293 27.2325 18.886 24.7761 21.6142ZM23.5837 13.7562C23.2708 12.8394 22.6431 12.0567 21.807 11.541C21.3339 11.2113 20.759 11.051 20.1792 11.0871C19.5993 11.1232 19.0499 11.3535 18.6233 11.7392C16.9182 13.2199 16.5604 16.7292 17.8005 18.8161C17.9586 19.1564 18.1907 19.4588 18.4808 19.7022C18.7709 19.9456 19.1119 20.1241 19.4799 20.2251C19.8479 20.3262 20.234 20.3474 20.6113 20.2873C20.9886 20.2271 21.3478 20.0871 21.664 19.877C22.5883 19.1763 23.2664 18.2115 23.604 17.1167C23.9417 16.0218 23.9221 14.8513 23.548 13.7679L23.5837 13.7562Z" fill="#CDCDCD"/>
<path d="M36.7956 15.2251C36.4941 15.2885 36.1826 15.2923 35.8795 15.2362C35.5765 15.1801 35.2879 15.0654 35.0309 14.8987C34.806 14.7729 34.6124 14.6 34.464 14.3923C34.3157 14.1846 34.2163 13.9474 34.173 13.6976C34.1296 13.4479 34.1435 13.1919 34.2134 12.948C34.2834 12.7041 34.4079 12.4784 34.5778 12.2871C34.8738 11.9027 35.294 11.6275 35.7702 11.506C37.0135 11.1532 38.2934 10.9381 39.5859 10.8648C39.8699 10.8325 40.1576 10.856 40.4321 10.9339C40.7067 11.0119 40.9625 11.1426 41.1847 11.3186C41.4068 11.4945 41.5908 11.7121 41.7258 11.9585C41.8607 12.2049 41.944 12.4752 41.9707 12.7535C42.3433 14.1205 42.3841 15.5538 42.0899 16.939C41.0168 21.4159 37.3203 22.9548 33.1707 21.5208C32.0059 21.1374 30.9846 20.423 30.2374 19.4689C29.2408 18.3199 28.5342 16.9582 28.1745 15.4933C27.8831 14.1888 27.915 12.8352 28.2677 11.5453C28.6203 10.2554 29.2834 9.06664 30.2016 8.07834C31.073 7.00417 32.204 6.1588 33.4927 5.61835C34.307 5.1795 35.2599 5.05472 36.1637 5.26859C36.3687 5.32407 36.5548 5.43217 36.7027 5.58168C36.8506 5.7312 36.9549 5.91667 37.0048 6.11888C37.0547 6.32108 37.0483 6.53265 36.9864 6.73165C36.9244 6.93064 36.8092 7.10981 36.6526 7.25057C36.3548 7.51412 36.0313 7.74842 35.6867 7.95009C34.6266 8.61016 33.7041 9.46071 32.968 10.4567C32.4855 11.1012 32.1532 11.8413 31.9946 12.6248C31.8359 13.4083 31.8548 14.2163 32.0499 14.992C32.3203 16.0496 32.9204 16.9989 33.7669 17.7084C36.3902 20.0402 39.8005 17.79 39.2043 14.6072C38.3339 14.8171 37.5707 15.0386 36.7956 15.2251Z" fill="#CDCDCD"/>
<path d="M52.8218 21.8007C48.9465 24.1325 44.5346 21.8007 43.5687 16.9041C42.8652 13.4065 44.2007 8.50979 48.875 6.6444C49.8695 6.25605 50.9482 6.1197 52.011 6.248C53.2879 6.47655 54.4593 7.09118 55.3599 8.00525C56.2605 8.91931 56.8451 10.0867 57.031 11.3429C57.818 15.505 56.0294 19.947 52.8218 21.8007ZM54.1693 13.9544C54.1681 12.9859 53.8177 12.0487 53.1796 11.3079C52.8385 10.8497 52.3454 10.5214 51.7844 10.3789C51.2233 10.2365 50.6292 10.2887 50.1031 10.5268C48.0045 11.4128 46.5259 14.6306 47.0625 16.9974C47.1035 17.3688 47.2269 17.727 47.4242 18.0469C47.6215 18.3668 47.8879 18.6407 48.2048 18.8495C48.5216 19.0582 48.8813 19.1968 49.2586 19.2555C49.636 19.3141 50.0219 19.2915 50.3893 19.1892C51.4986 18.8103 52.4591 18.1022 53.1367 17.1637C53.8144 16.2252 54.1754 15.1032 54.1693 13.9544Z" fill="#CDCDCD"/>
<path d="M60.95 22.78C60.8915 23.2067 60.6621 23.5932 60.3121 23.8545C59.9621 24.1157 59.5203 24.2304 59.0839 24.1732C58.6475 24.116 58.2522 23.8916 57.985 23.5494C57.7177 23.2073 57.6005 22.7753 57.659 22.3486C57.7175 21.9219 57.947 21.5354 58.2969 21.2741C58.6469 21.0128 59.0887 20.8982 59.5251 20.9554C59.9615 21.0126 60.3568 21.2369 60.6241 21.5791C60.8913 21.9213 61.0086 22.3533 60.95 22.78ZM59.9126 7.0524C60.1394 6.71375 60.4721 6.45586 60.8611 6.31719C61.25 6.17852 61.6744 6.1665 62.0709 6.28293C62.474 6.38154 62.8301 6.61255 63.0798 6.93728C63.3294 7.26202 63.4573 7.66075 63.4422 8.06671C63.3896 8.71788 63.29 9.36461 63.1441 10.002C62.7506 12.1589 62.369 14.3157 61.9517 16.4493C61.7609 17.3004 61.5105 18.1165 61.2362 18.9792C61.1408 19.2489 60.9814 19.4926 60.7712 19.6904C60.6405 19.8392 60.4736 19.9533 60.2858 20.0222C60.098 20.0912 59.8955 20.1127 59.697 20.0848C59.4985 20.0569 59.3103 19.9805 59.15 19.8627C58.9897 19.7448 58.8624 19.5893 58.7799 19.4106C58.6381 19.09 58.5611 18.7455 58.5533 18.3963C58.5533 16.9506 58.5533 15.4933 58.6487 14.0359C58.8108 11.9561 59.1296 9.89081 59.6026 7.85685C59.6583 7.58435 59.7632 7.32376 59.9126 7.08738V7.0524Z" fill="#CDCDCD"/>
<path fill-rule="evenodd" clip-rule="evenodd" d="M6.42312 32.1489C6.28233 32.4562 6.24372 32.7988 6.31252 33.1285C6.35829 33.5631 6.45882 33.9906 6.61182 34.4012C6.80284 34.904 7.01659 35.4012 7.28015 36.014C7.34076 36.155 7.4041 36.3022 7.47038 36.4571C7.8258 37.2873 8.27176 38.3483 8.86661 39.8838C9.03498 40.32 9.18449 40.7598 9.33505 41.2026C9.39587 41.3815 9.45691 41.561 9.51939 41.7409C9.74335 42.3805 10.1287 42.9551 10.6395 43.4105C10.8564 43.6608 11.1441 43.8432 11.4667 43.9344C11.7956 44.0274 12.1454 44.0215 12.4708 43.9175C12.7962 43.8134 13.082 43.616 13.2911 43.3509C13.4961 43.091 13.618 42.7778 13.6417 42.4506C13.7747 41.8132 13.7293 41.1523 13.5101 40.5378C13.1622 39.5175 12.7659 38.4957 12.3089 37.4963L12.3068 37.4919C11.555 35.9283 10.7908 34.3755 9.99045 32.8221L9.98446 32.8112C9.75016 32.4065 9.44567 32.0447 9.08467 31.7421C8.85031 31.472 8.52704 31.2898 8.17004 31.227C7.80543 31.1629 7.42939 31.2275 7.10905 31.4094C6.80601 31.5786 6.56579 31.8375 6.42312 32.1489Z" fill="#CDCDCD"/>
<path fill-rule="evenodd" clip-rule="evenodd" d="M17.9057 28.2986C16.7269 28.0001 15.4958 27.9566 14.2982 28.1712C13.3706 28.2605 12.4583 28.4697 11.8248 28.8841C11.5026 29.095 11.2421 29.3658 11.0972 29.71C10.9515 30.0561 10.9329 30.4519 11.0523 30.8929C11.2703 31.7007 11.5534 32.4861 11.8355 33.269L11.8812 33.3958L11.8823 33.3986C12.7317 35.673 13.5892 37.9397 14.4545 40.1986C14.5554 40.5546 14.6981 40.898 14.8797 41.2219L14.8831 41.2279C15.123 41.6303 15.4307 41.9902 15.7932 42.2925C15.9745 42.4587 16.1987 42.5737 16.4418 42.6251C16.6873 42.6769 16.9426 42.6619 17.1799 42.5815C17.4173 42.5012 17.6275 42.3587 17.7877 42.1695C17.9453 41.9834 18.0485 41.7592 18.0864 41.5206C18.2428 40.8724 18.1927 40.1929 17.9427 39.5733C17.8647 39.3648 17.8035 39.1517 17.739 38.9274C17.7175 38.8526 17.6957 38.7765 17.6727 38.699C19.6534 37.942 21.7609 36.9241 22.502 34.5561C22.7922 33.7378 22.8164 32.8517 22.5712 32.0193C22.3258 31.186 21.8223 30.4474 21.1301 29.9052C20.188 29.1462 19.0875 28.5978 17.9057 28.2986ZM14.6382 31.2031C14.6772 31.1921 14.7165 31.1819 14.7559 31.1724C16.0454 30.9742 17.3647 31.2383 18.4709 31.9159C18.9584 32.2474 19.1581 32.6157 19.1924 32.9701C19.2278 33.335 19.0921 33.7304 18.8195 34.1105C18.3044 34.8285 17.3644 35.4032 16.5153 35.5103C15.8963 34.1165 15.2677 32.6663 14.6382 31.2031Z" fill="#CDCDCD"/>
<path d="M25.7647 25.7473C27.1685 25.1134 28.9074 25.0039 30.2681 25.4496C30.6108 25.5472 30.9081 25.7583 31.1092 26.0468C31.309 26.3335 31.4012 26.679 31.3704 27.0244C31.3684 27.2486 31.3121 27.4692 31.2062 27.6682C31.0984 27.8708 30.9423 28.045 30.7511 28.1762C30.5599 28.3073 30.3392 28.3916 30.1077 28.4217C29.8761 28.4519 29.6406 28.4271 29.4209 28.3494L29.4042 28.3435L29.3885 28.3354C29.2761 28.2779 29.1567 28.2346 29.0332 28.2064L29.0254 28.2047C28.0682 27.9561 27.1653 28.368 26.8355 28.8741C26.6782 29.1154 26.6587 29.359 26.7897 29.5806C26.93 29.8179 27.2741 30.0842 27.9704 30.274C28.1619 30.3254 28.3582 30.375 28.5573 30.4254C29.1079 30.5648 29.6801 30.7096 30.2334 30.9103L30.2355 30.9111C32.7881 31.8607 33.7386 33.8274 33.4132 35.6772C33.0913 37.5065 31.5288 39.1713 29.1791 39.564C28.3241 39.7493 27.4343 39.7132 26.5978 39.4593C25.7592 39.2046 25.0033 38.7399 24.4052 38.1111L24.3896 38.0947C24.2008 37.8578 24.0738 37.5795 24.0175 37.2842C23.9657 37.0177 23.993 36.7423 24.096 36.4904C24.1984 36.24 24.3716 36.0233 24.5951 35.8654C24.8312 35.6864 25.1158 35.579 25.4137 35.5566C25.7106 35.5343 26.0077 35.5974 26.2684 35.738C26.5288 35.861 26.771 36.0179 26.9884 36.2045L26.9925 36.2079C27.3771 36.5518 27.8424 36.6414 28.2886 36.5584C28.7413 36.4742 29.167 36.2123 29.4408 35.8648C29.7128 35.5195 29.822 35.1093 29.6924 34.7111C29.562 34.31 29.1699 33.8606 28.3084 33.4849C28.0832 33.3914 27.8497 33.316 27.6068 33.2426C27.5413 33.2228 27.4747 33.2031 27.4073 33.1831C27.2277 33.1298 27.0429 33.0749 26.8617 33.0144C26.7369 32.9728 26.6131 32.9334 26.4905 32.8943C26.1554 32.7876 25.8287 32.6836 25.5143 32.5441C24.83 32.3163 24.2388 31.8789 23.8287 31.2966C23.4169 30.712 23.2097 30.0129 23.2379 29.3037C23.2401 27.5754 24.3534 26.3847 25.7647 25.7473Z" fill="#CDCDCD"/>
<path d="M43.5619 25.5632C43.2897 25.4332 42.9887 25.3715 42.6861 25.3836C42.3834 25.3958 42.0886 25.4814 41.8283 25.6329C41.5696 25.7833 41.353 25.9939 41.1978 26.246C41.0555 26.4583 40.957 26.6957 40.9079 26.945C40.8588 27.1941 40.86 27.4501 40.9113 27.6986C40.962 28.018 41.0182 28.3286 41.0737 28.6349C41.1656 29.1418 41.255 29.6373 41.314 30.1425L41.3162 30.1553C41.4505 30.9476 41.5208 31.7489 41.5271 32.5519L41.5277 32.5633C41.5736 33.4305 41.2714 34.2808 40.6859 34.9338L40.6766 34.9454C40.4861 35.1841 40.2314 35.3663 39.9409 35.4716C39.6505 35.5769 39.3359 35.6011 39.0322 35.5415C38.7285 35.4819 38.4478 35.3409 38.2214 35.1342C37.995 34.9275 37.8317 34.6625 37.7502 34.3704C37.5762 33.7547 37.4755 33.1214 37.4499 32.4832L37.7471 27.8569C37.7515 27.7965 37.7565 27.7345 37.7616 27.6719C37.7729 27.5314 37.7845 27.3883 37.7893 27.2548C37.7963 27.0584 37.7903 26.8564 37.7435 26.6652C37.6956 26.4698 37.6045 26.2839 37.4429 26.1256C37.2829 25.9689 37.0669 25.8533 36.7951 25.7746C36.3036 25.6355 35.888 25.6399 35.5417 25.7836C35.1952 25.9273 34.9578 26.1941 34.7898 26.5023C34.6231 26.8079 34.516 27.1697 34.435 27.5321C34.3749 27.801 34.3266 28.0833 34.2807 28.352C34.2648 28.4446 34.2493 28.5355 34.2336 28.6238L34.2332 28.6264C33.9876 30.1 33.9145 31.5962 34.0153 33.086C34.0341 33.8911 34.2058 34.6858 34.5218 35.4295C34.8783 36.3891 35.524 37.2205 36.3737 37.814C37.2252 38.4087 38.2413 38.7364 39.2875 38.7537C40.3337 38.771 41.3606 38.4771 42.2322 37.911C43.1024 37.3457 43.7768 36.5355 44.1662 35.5876C44.7109 34.3801 44.9667 33.0669 44.9139 31.7481C44.8819 30.7853 44.8283 29.8151 44.775 28.8498C44.7488 28.3763 44.7227 27.9038 44.6993 27.4342C44.6875 26.9633 44.5287 26.5072 44.2441 26.1271C44.068 25.8868 43.8336 25.693 43.5619 25.5632Z" fill="#CDCDCD"/>
<path d="M53.196 32.8172C53.1684 32.8515 53.1393 32.887 53.1089 32.9239C52.8875 31.6751 52.6823 30.4267 52.4768 29.1764C52.4031 28.7278 52.329 28.2773 52.2545 27.8281L52.2461 27.778L52.2189 27.7347C52.1676 27.6532 52.1625 27.5733 52.1625 27.4029V27.3832L52.1594 27.3637C52.1038 27.0118 51.941 26.6843 51.6923 26.4241C51.4443 26.1646 51.1222 25.984 50.7679 25.9056C50.4142 25.8203 50.0425 25.8391 49.6996 25.9597C49.3576 26.08 49.0595 26.2962 48.8425 26.5812C48.6621 26.7999 48.5142 27.0425 48.4034 27.3017C48.1519 27.8601 47.8982 28.4199 47.6438 28.9812L47.6394 28.9909C47.0043 30.3922 46.3649 31.8029 45.7441 33.2247L45.7422 33.2293C45.3611 34.1512 45.0465 35.1226 44.733 36.091C44.6704 36.2843 44.6078 36.4775 44.5447 36.6702C44.4315 36.9758 44.382 37.3004 44.399 37.6249C44.3784 37.9154 44.4495 38.2052 44.6029 38.4551C44.7593 38.7101 44.9936 38.9107 45.2727 39.0288C45.5685 39.1556 45.8992 39.1825 46.2125 39.1053C46.5251 39.0282 46.8027 38.8518 47.0016 38.6038C47.2556 38.2983 47.4741 37.9651 47.6523 37.6121C48.1782 36.5603 48.6808 35.4957 49.1811 34.4357C49.3747 34.0257 49.5628 33.6585 49.7768 33.2586C49.7915 33.3079 49.8065 33.356 49.822 33.4042C50.0463 34.3697 50.4249 35.2945 50.9438 36.1447C51.042 36.3248 51.1788 36.4822 51.3448 36.6061C51.5128 36.7315 51.7067 36.8195 51.913 36.8642C52.1193 36.9089 52.3331 36.9091 52.5395 36.8648C52.7456 36.8206 52.9401 36.7325 53.1082 36.6077L53.4409 36.3642L56.0232 34.2375L55.8705 35.189C55.6609 36.4969 55.4529 37.7939 55.2319 39.0912C55.0873 39.6662 55.0875 40.2668 55.2325 40.8416C55.2953 41.1651 55.4553 41.4629 55.6921 41.6971C55.9309 41.9332 56.2367 42.0936 56.5699 42.1576C56.9031 42.2215 57.2483 42.1861 57.5606 42.0558C57.8684 41.9275 58.1302 41.7129 58.3132 41.4394C58.739 40.9229 59.004 40.2976 59.0768 39.6379C59.1864 38.7063 59.3102 37.762 59.4341 36.818C59.5768 35.7299 59.7195 34.6421 59.84 33.5752L59.8404 33.5719C59.9564 32.404 60.0125 31.2313 60.0086 30.0579C60.034 29.6871 59.9396 29.3177 59.7384 29.002C59.5365 28.6852 59.2375 28.4389 58.8841 28.298C58.5165 28.1346 58.105 28.0909 57.7101 28.1735C57.3178 28.2555 56.9627 28.4577 56.6963 28.7506C56.22 29.1813 55.7732 29.6422 55.3587 30.1303L55.3559 30.1336C54.9034 30.6849 54.454 31.247 54.0075 31.8055C53.736 32.145 53.4653 32.4837 53.196 32.8172Z" fill="#CDCDCD"/>
</g>
<defs>
<clipPath id="clip0_1021_80">
<rect width="70" height="44" fill="white"/>
</clipPath>
</defs>
</svg>
