<svg width="154" height="34" viewBox="0 0 154 34" fill="none" xmlns="http://www.w3.org/2000/svg">
<path d="M45.106 22.6914C45.106 23.4336 44.9536 24.0039 44.6489 24.4023C44.3521 24.8008 43.856 25 43.1607 25C42.5044 25 42.0396 24.8008 41.7661 24.4023C41.5005 24.0039 41.3677 23.4336 41.3677 22.6914V10.3047C41.3677 9.5625 41.5005 8.99219 41.7661 8.59375C42.0396 8.19531 42.5044 7.99609 43.1607 7.99609C43.856 7.99609 44.3521 8.19531 44.6489 8.59375C44.9536 8.99219 45.106 9.5625 45.106 10.3047V22.6914Z" fill="#CDCDCD"/>
<path d="M46.2407 19.0938C46.2407 18.2656 46.3735 17.4844 46.6392 16.75C46.9126 16.0078 47.3188 15.3594 47.8579 14.8047C48.4048 14.25 49.0845 13.8086 49.897 13.4805C50.7173 13.1523 51.6782 12.9883 52.7798 12.9883C53.8345 12.9883 54.7681 13.1406 55.5806 13.4453C56.3931 13.75 57.0767 14.1758 57.6313 14.7227C58.186 15.2617 58.6079 15.9062 58.897 16.6562C59.186 17.3984 59.3306 18.2109 59.3306 19.0938C59.3306 19.9141 59.1938 20.6914 58.9204 21.4258C58.647 22.1523 58.2368 22.793 57.6899 23.3477C57.1431 23.8945 56.4595 24.332 55.6392 24.6602C54.8188 24.9805 53.8657 25.1406 52.7798 25.1406C51.7095 25.1406 50.7642 24.9883 49.9438 24.6836C49.1313 24.3711 48.4478 23.9453 47.8931 23.4062C47.3462 22.8594 46.9321 22.2188 46.6509 21.4844C46.3774 20.7422 46.2407 19.9453 46.2407 19.0938ZM50.1431 19.0938C50.1431 19.6094 50.1899 20.1016 50.2837 20.5703C50.3774 21.0312 50.5259 21.4375 50.729 21.7891C50.9399 22.1406 51.2134 22.4219 51.5493 22.6328C51.8853 22.8359 52.2954 22.9375 52.7798 22.9375C53.2251 22.9375 53.6118 22.8438 53.9399 22.6562C54.2759 22.4688 54.5493 22.207 54.7603 21.8711C54.979 21.5352 55.1431 21.1328 55.2524 20.6641C55.3618 20.1875 55.4165 19.6641 55.4165 19.0938C55.4165 18.5781 55.3657 18.0898 55.2642 17.6289C55.1704 17.1602 55.0181 16.75 54.8071 16.3984C54.5962 16.0391 54.3228 15.7578 53.9868 15.5547C53.6587 15.3438 53.2563 15.2383 52.7798 15.2383C52.3032 15.2383 51.897 15.3398 51.561 15.543C51.2251 15.7461 50.9517 16.0234 50.7407 16.375C50.5298 16.7266 50.3774 17.1367 50.2837 17.6055C50.1899 18.0742 50.1431 18.5703 50.1431 19.0938Z" fill="#CDCDCD"/>
<path d="M68.9498 22.7383C68.7388 23.1289 68.481 23.4609 68.1763 23.7344C67.8795 24.0078 67.5474 24.2344 67.1803 24.4141C66.8209 24.5859 66.4342 24.7148 66.0201 24.8008C65.6138 24.8789 65.1959 24.918 64.7662 24.918C64.0474 24.918 63.3912 24.7891 62.7974 24.5312C62.2037 24.2734 61.692 23.9023 61.2623 23.418C60.8404 22.9258 60.5123 22.3242 60.2779 21.6133C60.0435 20.9023 59.9263 20.0898 59.9263 19.1758C59.9263 18.3164 60.0357 17.5117 60.2545 16.7617C60.4732 16.0117 60.7896 15.3594 61.2037 14.8047C61.6256 14.25 62.1412 13.8125 62.7506 13.4922C63.3599 13.1719 64.0553 13.0117 64.8365 13.0117C65.7271 13.0117 66.5162 13.1836 67.2037 13.5273C67.899 13.8711 68.4967 14.4336 68.9967 15.2148V14.9102C68.9967 14.3477 69.149 13.9258 69.4537 13.6445C69.7662 13.3555 70.1959 13.2109 70.7428 13.2109C71.0709 13.2109 71.3482 13.2656 71.5748 13.375C71.8013 13.4766 71.981 13.6328 72.1138 13.8438C72.2467 14.0469 72.3404 14.3008 72.3951 14.6055C72.4576 14.9023 72.4888 15.2422 72.4888 15.625V23.4766C72.4888 24.4297 72.3678 25.2812 72.1256 26.0312C71.8912 26.7812 71.524 27.4141 71.024 27.9297C70.524 28.4453 69.8834 28.8359 69.1021 29.1016C68.3209 29.375 67.3912 29.5117 66.3131 29.5117C65.5553 29.5117 64.8834 29.4766 64.2974 29.4062C63.7193 29.3438 63.2193 29.2461 62.7974 29.1133C62.3756 28.9648 62.0553 28.8008 61.8365 28.6211C61.6256 28.4414 61.5201 28.207 61.5201 27.918C61.5201 27.7539 61.5435 27.5977 61.5904 27.4492C61.6373 27.3008 61.7076 27.168 61.8013 27.0508C61.9029 26.9414 62.0318 26.8516 62.1881 26.7812C62.3521 26.7188 62.5513 26.6875 62.7857 26.6875C63.0357 26.6875 63.2857 26.7031 63.5357 26.7344C63.7935 26.7656 64.0592 26.7969 64.3326 26.8281C64.6138 26.8672 64.9068 26.9023 65.2115 26.9336C65.524 26.9648 65.8599 26.9805 66.2193 26.9805C66.649 26.9805 67.0318 26.9375 67.3678 26.8516C67.7037 26.7656 67.9888 26.6133 68.2232 26.3945C68.4576 26.1758 68.6373 25.8828 68.7623 25.5156C68.8873 25.1562 68.9498 24.6953 68.9498 24.1328V22.7383ZM68.9498 19.0938C68.9498 18.5234 68.9068 18.0039 68.8209 17.5352C68.7428 17.0664 68.606 16.668 68.4107 16.3398C68.2154 16.0039 67.9537 15.7461 67.6256 15.5664C67.2974 15.3789 66.8873 15.2852 66.3951 15.2852C65.9107 15.2852 65.5084 15.3828 65.1881 15.5781C64.8756 15.7734 64.6256 16.043 64.4381 16.3867C64.2506 16.7305 64.1178 17.1328 64.0396 17.5938C63.9693 18.0547 63.9342 18.5469 63.9342 19.0703C63.9342 20.2656 64.1451 21.1641 64.567 21.7656C64.9888 22.3672 65.6021 22.668 66.4068 22.668C66.7818 22.6602 67.1217 22.5898 67.4263 22.457C67.7388 22.3164 68.0084 22.1016 68.2349 21.8125C68.4615 21.5234 68.6373 21.1562 68.7623 20.7109C68.8873 20.2656 68.9498 19.7266 68.9498 19.0938Z" fill="#CDCDCD"/>
<path d="M73.5652 19.0938C73.5652 18.2656 73.698 17.4844 73.9636 16.75C74.2371 16.0078 74.6433 15.3594 75.1824 14.8047C75.7293 14.25 76.4089 13.8086 77.2214 13.4805C78.0418 13.1523 79.0027 12.9883 80.1043 12.9883C81.1589 12.9883 82.0925 13.1406 82.905 13.4453C83.7175 13.75 84.4011 14.1758 84.9558 14.7227C85.5105 15.2617 85.9324 15.9062 86.2214 16.6562C86.5105 17.3984 86.655 18.2109 86.655 19.0938C86.655 19.9141 86.5183 20.6914 86.2449 21.4258C85.9714 22.1523 85.5613 22.793 85.0144 23.3477C84.4675 23.8945 83.7839 24.332 82.9636 24.6602C82.1433 24.9805 81.1902 25.1406 80.1043 25.1406C79.0339 25.1406 78.0886 24.9883 77.2683 24.6836C76.4558 24.3711 75.7722 23.9453 75.2175 23.4062C74.6707 22.8594 74.2566 22.2188 73.9753 21.4844C73.7019 20.7422 73.5652 19.9453 73.5652 19.0938ZM77.4675 19.0938C77.4675 19.6094 77.5144 20.1016 77.6082 20.5703C77.7019 21.0312 77.8503 21.4375 78.0535 21.7891C78.2644 22.1406 78.5378 22.4219 78.8738 22.6328C79.2097 22.8359 79.6199 22.9375 80.1043 22.9375C80.5496 22.9375 80.9363 22.8438 81.2644 22.6562C81.6003 22.4688 81.8738 22.207 82.0847 21.8711C82.3035 21.5352 82.4675 21.1328 82.5769 20.6641C82.6863 20.1875 82.741 19.6641 82.741 19.0938C82.741 18.5781 82.6902 18.0898 82.5886 17.6289C82.4949 17.1602 82.3425 16.75 82.1316 16.3984C81.9207 16.0391 81.6472 15.7578 81.3113 15.5547C80.9832 15.3438 80.5808 15.2383 80.1043 15.2383C79.6277 15.2383 79.2214 15.3398 78.8855 15.543C78.5496 15.7461 78.2761 16.0234 78.0652 16.375C77.8543 16.7266 77.7019 17.1367 77.6082 17.6055C77.5144 18.0742 77.4675 18.5703 77.4675 19.0938Z" fill="#CDCDCD"/>
<path d="M91.6804 9.03906C91.6804 9.29688 91.6218 9.52734 91.5046 9.73047C91.3874 9.92578 91.2351 10.0898 91.0476 10.2227C90.8601 10.3555 90.6413 10.457 90.3913 10.5273C90.1492 10.5898 89.8992 10.6211 89.6413 10.6211C89.3679 10.6211 89.1062 10.5859 88.8562 10.5156C88.614 10.4453 88.3992 10.3438 88.2117 10.2109C88.0242 10.0703 87.8757 9.90234 87.7663 9.70703C87.657 9.51172 87.6023 9.28906 87.6023 9.03906C87.6023 8.8125 87.6531 8.60547 87.7546 8.41797C87.864 8.22266 88.0085 8.05469 88.1882 7.91406C88.3679 7.77344 88.5828 7.66406 88.8328 7.58594C89.0828 7.50781 89.3562 7.46875 89.6531 7.46875C89.9109 7.46875 90.1609 7.50391 90.4031 7.57422C90.6531 7.64453 90.8718 7.74609 91.0593 7.87891C91.2468 8.01172 91.3953 8.17578 91.5046 8.37109C91.6218 8.56641 91.6804 8.78906 91.6804 9.03906ZM91.5046 22.6914C91.5046 23.4336 91.3523 24.0039 91.0476 24.4023C90.7507 24.8008 90.2546 25 89.5593 25C88.9031 25 88.4382 24.8008 88.1648 24.4023C87.8992 24.0039 87.7663 23.4336 87.7663 22.6914V15.5195C87.7663 14.7773 87.8992 14.207 88.1648 13.8086C88.4382 13.4102 88.9031 13.2109 89.5593 13.2109C90.2546 13.2109 90.7507 13.4102 91.0476 13.8086C91.3523 14.207 91.5046 14.7773 91.5046 15.5195V22.6914Z" fill="#CDCDCD"/>
<path d="M96.8936 19.0703C96.8936 19.5938 96.9326 20.082 97.0108 20.5352C97.0967 20.9883 97.2373 21.3867 97.4326 21.7305C97.6358 22.0664 97.9014 22.332 98.2295 22.5273C98.5654 22.7227 98.9795 22.8203 99.4717 22.8203C99.9248 22.8203 100.304 22.7266 100.609 22.5391C100.921 22.3438 101.171 22.0781 101.359 21.7422C101.546 21.3984 101.679 20.9961 101.757 20.5352C101.843 20.0742 101.886 19.5742 101.886 19.0352C101.886 18.6055 101.855 18.168 101.792 17.7227C101.73 17.2695 101.613 16.8594 101.441 16.4922C101.269 16.125 101.031 15.8242 100.726 15.5898C100.421 15.3555 100.023 15.2383 99.5303 15.2383C99.0381 15.2383 98.6201 15.3164 98.2764 15.4727C97.9404 15.6289 97.667 15.8672 97.4561 16.1875C97.2529 16.5078 97.1084 16.9102 97.0225 17.3945C96.9365 17.8711 96.8936 18.4297 96.8936 19.0703ZM96.8819 15.5195C97.0772 15.1055 97.3272 14.7422 97.6319 14.4297C97.9365 14.1172 98.2725 13.8555 98.6397 13.6445C99.0069 13.4336 99.3897 13.2773 99.7881 13.1758C100.195 13.0664 100.597 13.0117 100.995 13.0117C101.714 13.0117 102.363 13.1719 102.941 13.4922C103.519 13.8125 104.011 14.25 104.417 14.8047C104.831 15.3516 105.148 16 105.367 16.75C105.585 17.4922 105.695 18.2891 105.695 19.1406C105.695 20.0234 105.577 20.832 105.343 21.5664C105.117 22.3008 104.792 22.9336 104.37 23.4648C103.956 23.9883 103.456 24.3984 102.87 24.6953C102.292 24.9922 101.648 25.1406 100.937 25.1406C100.062 25.1406 99.2803 24.9375 98.5928 24.5312C97.9053 24.125 97.335 23.5547 96.8819 22.8203V27.0391C96.8819 27.7812 96.7295 28.3516 96.4248 28.75C96.1279 29.1484 95.6319 29.3477 94.9365 29.3477C94.2803 29.3477 93.8154 29.1484 93.542 28.75C93.2764 28.3516 93.1436 27.7812 93.1436 27.0391V15.5195C93.1436 14.7773 93.2764 14.207 93.542 13.8086C93.8154 13.4102 94.2803 13.2109 94.9365 13.2109C95.6319 13.2109 96.1279 13.4102 96.4248 13.8086C96.7295 14.207 96.8819 14.7773 96.8819 15.5195Z" fill="#CDCDCD"/>
<path d="M109.818 16.3516C109.818 16.6562 109.951 16.8945 110.216 17.0664C110.482 17.2305 110.849 17.3672 111.318 17.4766C111.763 17.5781 112.22 17.6758 112.689 17.7695C113.158 17.8633 113.615 17.9727 114.06 18.0977C114.505 18.2148 114.923 18.3555 115.314 18.5195C115.704 18.6836 116.048 18.8906 116.345 19.1406C116.642 19.3828 116.876 19.6797 117.048 20.0312C117.22 20.375 117.306 20.7891 117.306 21.2734C117.306 21.8828 117.181 22.4258 116.931 22.9023C116.681 23.3711 116.326 23.7695 115.865 24.0977C115.412 24.4258 114.869 24.6797 114.236 24.8594C113.603 25.0391 112.904 25.1328 112.138 25.1406C111.412 25.1406 110.712 25.0938 110.04 25C109.369 24.9141 108.771 24.7773 108.247 24.5898C107.732 24.4023 107.318 24.1719 107.005 23.8984C106.693 23.6172 106.537 23.2891 106.537 22.9141C106.537 22.5859 106.642 22.332 106.853 22.1523C107.064 21.9727 107.333 21.8828 107.662 21.8828C107.787 21.8828 107.935 21.9062 108.107 21.9531C108.279 22 108.466 22.0586 108.669 22.1289C108.872 22.1992 109.087 22.2773 109.314 22.3633C109.548 22.4414 109.79 22.5117 110.04 22.5742C110.353 22.6602 110.673 22.7305 111.001 22.7852C111.337 22.832 111.681 22.8555 112.033 22.8555C112.251 22.8555 112.466 22.8359 112.677 22.7969C112.888 22.75 113.076 22.6836 113.24 22.5977C113.412 22.5039 113.552 22.3867 113.662 22.2461C113.771 22.1055 113.837 21.9336 113.861 21.7305C113.884 21.6836 113.904 21.6367 113.919 21.5898C113.935 21.543 113.943 21.4883 113.943 21.4258C113.943 21.207 113.841 21.0117 113.638 20.8398C113.443 20.668 113.165 20.5312 112.806 20.4297C112.204 20.2891 111.63 20.1602 111.083 20.043C110.537 19.9258 110.029 19.8008 109.56 19.668C109.099 19.5352 108.677 19.3828 108.294 19.2109C107.919 19.0391 107.599 18.8281 107.333 18.5781C107.076 18.3281 106.872 18.0273 106.724 17.6758C106.583 17.3242 106.513 16.8984 106.513 16.3984C106.513 15.8594 106.634 15.3789 106.876 14.957C107.126 14.5273 107.482 14.168 107.943 13.8789C108.404 13.5898 108.962 13.3711 109.619 13.2227C110.275 13.0664 111.017 12.9883 111.845 12.9883C113.329 12.9883 114.458 13.168 115.232 13.5273C116.013 13.8789 116.404 14.3398 116.404 14.9102C116.404 15.2305 116.298 15.4766 116.087 15.6484C115.876 15.8125 115.622 15.8945 115.326 15.8945C115.169 15.8945 115.005 15.8672 114.833 15.8125C114.669 15.75 114.47 15.6836 114.236 15.6133C114.001 15.5352 113.72 15.4688 113.392 15.4141C113.072 15.3516 112.673 15.3203 112.197 15.3203C111.837 15.3203 111.509 15.3359 111.212 15.3672C110.923 15.3984 110.673 15.4531 110.462 15.5312C110.259 15.6094 110.099 15.7148 109.982 15.8477C109.872 15.9805 109.818 16.1484 109.818 16.3516Z" fill="#CDCDCD"/>
<path d="M122.061 20.6523C122.061 21.0195 122.108 21.3398 122.202 21.6133C122.303 21.8867 122.44 22.1172 122.612 22.3047C122.784 22.4844 122.983 22.6211 123.209 22.7148C123.444 22.8008 123.694 22.8438 123.959 22.8438C124.272 22.8438 124.573 22.7969 124.862 22.7031C125.151 22.6094 125.405 22.4648 125.624 22.2695C125.85 22.0742 126.03 21.8281 126.163 21.5312C126.295 21.2344 126.362 20.8867 126.362 20.4883V15.5195C126.362 14.7773 126.495 14.207 126.76 13.8086C127.034 13.4102 127.499 13.2109 128.155 13.2109C128.85 13.2109 129.346 13.4102 129.643 13.8086C129.948 14.207 130.1 14.7773 130.1 15.5195V22.6914C130.1 23.4336 129.948 24.0039 129.643 24.4023C129.346 24.8008 128.85 25 128.155 25C127.499 25 127.034 24.8008 126.76 24.4023C126.495 24.0039 126.362 23.4336 126.362 22.6914C126.198 23.0508 125.983 23.3789 125.717 23.6758C125.459 23.9727 125.155 24.2305 124.803 24.4492C124.459 24.6602 124.077 24.8242 123.655 24.9414C123.241 25.0586 122.791 25.1172 122.307 25.1172C121.784 25.1172 121.28 25.0273 120.795 24.8477C120.319 24.6602 119.897 24.3867 119.53 24.0273C119.163 23.6602 118.87 23.207 118.651 22.668C118.432 22.1289 118.323 21.5 118.323 20.7812V15.5195C118.323 14.7773 118.456 14.207 118.721 13.8086C118.995 13.4102 119.459 13.2109 120.116 13.2109C120.811 13.2109 121.307 13.4102 121.604 13.8086C121.909 14.207 122.061 14.7773 122.061 15.5195V20.6523Z" fill="#CDCDCD"/>
<path d="M131.798 15.5195C131.798 14.7773 131.931 14.207 132.197 13.8086C132.47 13.4102 132.935 13.2109 133.591 13.2109C134.287 13.2109 134.783 13.4102 135.08 13.8086C135.384 14.207 135.537 14.7773 135.537 15.5195C135.693 15.1445 135.904 14.8047 136.17 14.5C136.443 14.1875 136.752 13.9219 137.095 13.7031C137.447 13.4844 137.826 13.3164 138.232 13.1992C138.638 13.0742 139.06 13.0117 139.498 13.0117C139.904 13.0117 140.302 13.0664 140.693 13.1758C141.091 13.2773 141.459 13.4453 141.795 13.6797C142.138 13.9062 142.439 14.1953 142.697 14.5469C142.955 14.8984 143.154 15.3203 143.295 15.8125C143.537 15.2891 143.822 14.8477 144.15 14.4883C144.478 14.1289 144.834 13.8398 145.216 13.6211C145.599 13.4023 145.998 13.2461 146.412 13.1523C146.834 13.0586 147.255 13.0117 147.677 13.0117C148.177 13.0117 148.654 13.1016 149.107 13.2812C149.568 13.4609 149.97 13.7344 150.314 14.1016C150.666 14.4609 150.943 14.918 151.146 15.4727C151.357 16.0195 151.462 16.6602 151.462 17.3945V22.6914C151.462 23.4336 151.31 24.0039 151.005 24.4023C150.709 24.8008 150.212 25 149.517 25C148.861 25 148.396 24.8008 148.123 24.4023C147.857 24.0039 147.724 23.4336 147.724 22.6914V17.5586C147.724 17.207 147.677 16.8945 147.584 16.6211C147.49 16.3398 147.357 16.1055 147.185 15.918C147.021 15.7227 146.826 15.5781 146.599 15.4844C146.373 15.3828 146.13 15.332 145.873 15.332C145.552 15.332 145.248 15.3828 144.959 15.4844C144.67 15.5859 144.416 15.7422 144.197 15.9531C143.986 16.1641 143.814 16.4336 143.681 16.7617C143.556 17.0898 143.494 17.4844 143.494 17.9453V22.6914C143.494 23.4336 143.341 24.0039 143.037 24.4023C142.74 24.8008 142.244 25 141.548 25C140.892 25 140.427 24.8008 140.154 24.4023C139.888 24.0039 139.755 23.4336 139.755 22.6914V17.7812C139.755 16.9766 139.587 16.3672 139.252 15.9531C138.923 15.5391 138.474 15.332 137.904 15.332C137.568 15.332 137.255 15.3867 136.966 15.4961C136.677 15.6055 136.427 15.7656 136.216 15.9766C136.005 16.1875 135.837 16.4492 135.712 16.7617C135.595 17.0742 135.537 17.4336 135.537 17.8398V22.6914C135.537 23.4336 135.384 24.0039 135.08 24.4023C134.783 24.8008 134.287 25 133.591 25C132.935 25 132.47 24.8008 132.197 24.4023C131.931 24.0039 131.798 23.4336 131.798 22.6914V15.5195Z" fill="#CDCDCD"/>
<path d="M16.9966 23C13.6829 23 10.9966 20.3137 10.9966 17C10.9966 13.6863 13.6829 11 16.9966 11C20.3103 11 22.9966 13.6863 22.9966 17C22.9966 20.3137 20.3103 23 16.9966 23Z" fill="#CDCDCD"/>
<path d="M5.37287 19.0495C3.63412 19.3561 2.4423 21.0357 3.10975 22.6703C4.04159 24.9523 5.52822 26.9855 7.45553 28.5743C10.2114 30.846 13.6874 32.0599 17.2584 31.9976C20.8294 31.9353 24.261 30.6008 26.936 28.2342C28.8066 26.5792 30.2214 24.4953 31.0731 22.1822C31.6831 20.5253 30.4333 18.8883 28.6849 18.6426C26.9366 18.3969 25.3668 19.6695 24.5032 21.2095C24.0351 22.0442 23.4274 22.8015 22.6994 23.4456C21.1646 24.8035 19.1957 25.5691 17.1469 25.6049C15.098 25.6406 13.1036 24.9442 11.5224 23.6407C10.7723 23.0224 10.1386 22.2868 9.64166 21.4689C8.72487 19.96 7.11162 18.7429 5.37287 19.0495Z" fill="#CDCDCD"/>
<path d="M31.8806 18.8745C31.9572 18.2604 31.9966 17.6348 31.9966 17C31.9966 8.71573 25.2809 2 16.9966 2C8.71231 2 1.99658 8.71573 1.99658 17C1.99658 17.8147 2.06153 18.6142 2.18654 19.3937C2.87552 18.4505 3.95084 17.7772 5.11234 17.5724C6.36903 17.3508 7.51116 17.6556 8.47685 18.2253C8.4198 17.8251 8.39028 17.416 8.39028 17C8.39028 12.2469 12.2435 8.3937 16.9966 8.3937C21.7497 8.3937 25.6029 12.2469 25.6029 17C25.6029 17.3134 25.5861 17.6229 25.5535 17.9276C26.4988 17.3243 27.6298 16.9796 28.8937 17.1573C30.0613 17.3214 31.1591 17.9564 31.8806 18.8745Z" fill="#CDCDCD"/>
</svg>
