<?xml version="1.0" encoding="UTF-8"?>
<svg xmlns="http://www.w3.org/2000/svg" xmlns:xlink="http://www.w3.org/1999/xlink" width="447px" height="447px" viewBox="0 0 447 446" version="1.1">
<g id="surface1">
<path style=" stroke:none;fill-rule:evenodd;fill:rgb(78.431373%,0%,0%);fill-opacity:1;" d="M 124.113281 23.199219 C 155.152344 7.734375 189.816406 -0.195312 224.480469 0.00390625 C 261.925781 0.101562 299.273438 9.765625 332.003906 28.007812 C 362.84375 45.105469 389.460938 69.589844 409.128906 98.78125 C 426.511719 124.554688 438.382812 153.996094 443.695312 184.625 C 449.753906 219.367188 447.46875 255.601562 436.941406 289.300781 C 423.929688 331.183594 398.15625 369.050781 363.886719 396.507812 C 342.78125 382.578125 321.523438 368.851562 300.367188 354.972656 C 284.773438 344.8125 269.277344 334.550781 253.632812 324.492188 C 244.097656 324.292969 234.511719 324.492188 224.976562 324.394531 C 214.449219 324.441406 203.871094 324.292969 193.34375 324.441406 C 156.492188 348.332031 119.789062 372.417969 82.988281 396.40625 C 54.484375 373.460938 31.738281 343.375 17.484375 309.625 C 0.300781 269.128906 -4.316406 223.53125 4.074219 180.363281 C 10.382812 147.75 24.1875 116.625 44.054688 90.011719 C 65.011719 61.90625 92.675781 38.8125 124.113281 23.199219 Z M 216.039062 22.605469 C 179.535156 23.84375 143.53125 35.34375 113.085938 55.414062 C 82.097656 75.734375 56.867188 104.78125 41.222656 138.382812 C 27.367188 167.921875 21.058594 200.882812 22.75 233.445312 C 23.839844 254.410156 28.210938 275.273438 35.761719 294.902344 C 47.183594 324.738281 65.957031 351.703125 89.84375 372.914062 C 121.480469 354.378906 153.066406 335.890625 184.699219 317.355469 C 184.652344 306.894531 184.699219 296.390625 184.699219 285.929688 C 185.941406 285.1875 187.332031 284.195312 187.332031 282.609375 C 187.484375 280.976562 186.089844 279.886719 184.699219 279.289062 C 184.699219 278.597656 184.699219 277.902344 184.699219 277.210938 C 188.625 277.210938 192.597656 277.210938 196.570312 277.210938 C 196.570312 277.902344 196.570312 278.597656 196.570312 279.289062 C 195.429688 280.035156 194.4375 281.125 194.535156 282.5625 C 194.484375 284 195.476562 285.136719 196.570312 285.882812 C 196.621094 294.109375 196.570312 302.289062 196.570312 310.515625 C 199.101562 309.128906 201.488281 307.542969 204.070312 306.300781 C 207.296875 306.152344 210.578125 306.300781 213.804688 306.253906 C 213.804688 303.722656 213.804688 301.246094 213.804688 298.71875 C 220.261719 298.71875 226.714844 298.71875 233.171875 298.71875 C 233.171875 301.195312 233.222656 303.722656 233.125 306.203125 C 236.054688 306.300781 238.933594 306.203125 241.863281 306.253906 C 242.609375 306.152344 243.304688 306.402344 243.949219 306.800781 C 246.085938 308.039062 248.21875 309.277344 250.40625 310.515625 C 250.40625 302.289062 250.40625 294.109375 250.40625 285.882812 C 251.695312 285.039062 252.691406 283.652344 252.441406 282.066406 C 252.34375 280.777344 251.347656 279.9375 250.40625 279.242188 C 250.40625 278.546875 250.40625 277.851562 250.40625 277.160156 C 254.378906 277.160156 258.300781 277.160156 262.273438 277.160156 C 262.273438 277.851562 262.226562 278.546875 262.226562 279.242188 C 260.882812 279.785156 259.542969 280.875 259.644531 282.511719 C 259.644531 284.148438 261.03125 285.136719 262.273438 285.882812 C 262.226562 296.339844 262.273438 306.847656 262.273438 317.304688 C 293.859375 335.84375 325.496094 354.378906 357.132812 372.863281 C 381.417969 351.304688 400.386719 323.800781 411.761719 293.414062 C 424.027344 260.902344 427.457031 225.167969 421.945312 190.871094 C 416.230469 155.183594 400.488281 121.183594 377.097656 93.628906 C 353.207031 65.328125 321.324219 43.769531 286.015625 32.320312 C 263.515625 24.984375 239.679688 21.710938 216.039062 22.605469 Z M 216.039062 22.605469 "/>
<path style=" stroke:none;fill-rule:evenodd;fill:rgb(78.431373%,0%,0%);fill-opacity:1;" d="M 154.675781 73.070312 C 155.222656 72.078125 155.867188 70.890625 157.007812 70.542969 C 157.902344 70.246094 158.347656 71.285156 158.746094 71.882812 C 160.234375 72.425781 161.523438 73.367188 162.867188 74.261719 C 163.511719 74.65625 164.054688 75.449219 163.660156 76.242188 C 162.816406 77.183594 160.679688 76.789062 160.679688 78.425781 C 161.078125 80.257812 162.171875 81.945312 161.972656 83.828125 C 161.972656 85.316406 161.078125 86.804688 159.589844 87.148438 C 160.78125 87.496094 161.773438 88.4375 161.824219 89.726562 C 162.070312 91.164062 161.027344 92.304688 159.9375 93.050781 C 161.425781 93 162.914062 92.902344 164.355469 93.050781 C 165.746094 93.394531 165.84375 95.726562 164.304688 95.925781 C 161.871094 96.273438 161.128906 99.644531 162.667969 101.328125 C 163.5625 102.070312 165.496094 101.972656 165.296875 103.558594 C 165.347656 108.8125 165.296875 114.019531 165.296875 119.273438 C 167.429688 119.273438 169.617188 119.273438 171.75 119.273438 C 171.75 121.753906 171.75 124.230469 171.75 126.710938 C 169.320312 126.710938 166.738281 128.097656 166.488281 130.675781 C 166.242188 135.089844 166.441406 139.550781 166.390625 143.960938 C 168.625 145.398438 170.808594 147.085938 171.949219 149.515625 C 172.941406 151.449219 172.992188 153.679688 172.84375 155.8125 C 177.113281 157.25 181.429688 158.6875 185.75 160.125 C 185.75 162.601562 185.75 165.082031 185.75 167.558594 C 182.421875 167.757812 178.800781 169.988281 178.253906 173.460938 C 178.152344 182.382812 178.304688 191.355469 178.152344 200.28125 C 178.054688 203.503906 176.46875 207.46875 172.84375 207.816406 C 172.84375 243.507812 172.84375 279.152344 172.84375 314.847656 C 145.394531 327.835938 117.992188 340.875 90.589844 353.761719 C 70.386719 333.140625 54.851562 307.957031 46.015625 280.441406 C 72.871094 280.441406 99.722656 280.441406 126.628906 280.441406 C 126.628906 287.234375 126.628906 294.074219 126.628906 300.867188 C 114.070312 300.867188 101.511719 300.867188 88.953125 300.867188 C 88.953125 303.34375 88.953125 305.875 88.953125 308.402344 C 103.992188 308.402344 119.085938 308.402344 134.125 308.402344 C 134.125 286.9375 134.125 265.46875 134.125 244.003906 C 130.996094 244.003906 127.917969 244.003906 124.84375 244.003906 C 124.84375 247.078125 124.84375 250.199219 124.84375 253.273438 C 121.765625 253.273438 118.636719 253.273438 115.558594 253.273438 C 115.558594 256.347656 115.558594 259.472656 115.558594 262.546875 C 112.484375 262.546875 109.351562 262.546875 106.277344 262.546875 C 106.277344 265.617188 106.277344 268.742188 106.277344 271.816406 C 90.441406 271.816406 74.65625 271.816406 58.871094 271.816406 C 58.871094 267.898438 58.871094 263.933594 58.871094 260.015625 C 62.59375 260.015625 66.367188 260.015625 70.089844 260.015625 C 70.734375 260.117188 71.082031 259.523438 71.480469 259.125 C 82.699219 247.175781 93.917969 235.328125 105.136719 223.378906 C 105.136719 220.207031 105.136719 216.984375 105.136719 213.8125 C 114.816406 213.8125 124.496094 213.8125 134.171875 213.8125 C 134.171875 211.832031 134.171875 209.796875 134.171875 207.816406 C 130.152344 207.367188 128.765625 202.808594 128.8125 199.335938 C 128.765625 191.058594 128.8125 182.78125 128.8125 174.5 C 129.011719 170.535156 124.941406 167.707031 121.269531 167.558594 C 121.269531 165.082031 121.269531 162.601562 121.269531 160.074219 C 125.539062 158.636719 129.855469 157.25 134.125 155.8125 C 133.824219 152.785156 134.421875 149.515625 136.554688 147.234375 C 137.746094 145.894531 139.238281 144.90625 140.625 143.914062 C 140.476562 139.550781 140.777344 135.1875 140.476562 130.824219 C 140.277344 128.148438 137.648438 126.660156 135.214844 126.710938 C 135.214844 124.230469 135.214844 121.753906 135.214844 119.273438 C 137.351562 119.273438 139.535156 119.273438 141.667969 119.273438 C 141.71875 113.921875 141.621094 108.566406 141.71875 103.210938 C 141.820312 101.921875 143.503906 102.070312 144.300781 101.378906 C 145.441406 100.1875 145.394531 98.15625 144.398438 96.867188 C 143.753906 96.074219 142.613281 96.121094 141.867188 95.476562 C 141.273438 94.683594 141.667969 93.394531 142.613281 93.097656 C 144.050781 92.902344 145.542969 93.050781 146.980469 93.050781 C 146.039062 91.5625 147.128906 89.976562 148.667969 89.53125 C 147.625 88.738281 146.632812 87.644531 146.484375 86.257812 C 146.238281 84.523438 147.476562 82.886719 149.015625 82.242188 C 150.851562 81.300781 152.988281 81.546875 154.972656 81.300781 C 156.761719 80.804688 156.957031 78.324219 155.867188 77.085938 C 154.824219 75.945312 154.027344 74.507812 154.675781 73.070312 Z M 154.675781 73.070312 "/>
<path style=" stroke:none;fill-rule:evenodd;fill:rgb(78.431373%,0%,0%);fill-opacity:1;" d="M 288.273438 71.699219 C 288.621094 70.855469 289.414062 69.863281 290.40625 70.507812 C 291.648438 71.5 292.890625 73.085938 292.492188 74.773438 C 292.195312 76.0625 290.90625 76.855469 290.65625 78.144531 C 290.308594 79.332031 290.90625 80.769531 292.144531 81.117188 C 294.035156 81.414062 296.019531 81.117188 297.808594 81.910156 C 299.496094 82.554688 300.9375 84.191406 300.691406 86.125 C 300.539062 87.511719 299.546875 88.554688 298.503906 89.347656 C 300.042969 89.792969 301.085938 91.378906 300.191406 92.867188 C 301.632812 92.816406 303.121094 92.71875 304.5625 92.917969 C 305.953125 93.414062 305.902344 95.691406 304.316406 95.84375 C 301.585938 96.289062 301.085938 100.949219 303.820312 101.691406 C 304.414062 101.988281 305.457031 102.136719 305.40625 103.03125 C 305.507812 108.382812 305.40625 113.738281 305.457031 119.089844 C 307.59375 119.089844 309.777344 119.089844 311.914062 119.089844 C 311.914062 121.570312 311.914062 124.050781 311.914062 126.527344 C 309.429688 126.476562 306.800781 128.015625 306.601562 130.691406 C 306.351562 135.054688 306.601562 139.367188 306.5 143.730469 C 308.683594 145.21875 310.972656 146.902344 312.113281 149.382812 C 313.105469 151.316406 313.105469 153.496094 313.007812 155.628906 C 317.28125 157.066406 321.601562 158.503906 325.871094 159.890625 C 325.871094 162.371094 325.871094 164.847656 325.871094 167.375 C 322.992188 167.574219 320.160156 169.113281 318.820312 171.691406 C 318.125 172.976562 318.371094 174.464844 318.320312 175.804688 C 318.320312 183.886719 318.371094 191.914062 318.273438 199.996094 C 318.175781 203.21875 316.632812 207.234375 312.957031 207.632812 C 312.957031 209.613281 312.957031 211.648438 312.957031 213.628906 C 322.644531 213.628906 332.328125 213.628906 342.015625 213.628906 C 342.015625 216.800781 342.015625 220.023438 342.015625 223.195312 C 353.488281 235.390625 365.0625 247.585938 376.539062 259.78125 C 380.460938 259.832031 384.382812 259.78125 388.359375 259.78125 C 388.359375 263.746094 388.359375 267.664062 388.359375 271.628906 C 372.511719 271.628906 356.71875 271.628906 340.921875 271.628906 C 340.921875 268.554688 340.921875 265.433594 340.921875 262.359375 C 337.84375 262.359375 334.714844 262.359375 331.632812 262.359375 C 331.632812 259.285156 331.632812 256.164062 331.632812 253.089844 C 328.503906 253.089844 325.425781 253.089844 322.34375 253.089844 C 322.34375 250.015625 322.34375 246.894531 322.34375 243.820312 C 319.265625 243.820312 316.136719 243.820312 313.058594 243.820312 C 313.058594 265.285156 313.058594 286.75 313.058594 308.214844 C 328.105469 308.214844 343.207031 308.214844 358.257812 308.214844 C 358.257812 305.738281 358.257812 303.207031 358.257812 300.679688 C 345.691406 300.679688 333.125 300.679688 320.558594 300.679688 C 320.558594 293.890625 320.558594 287.046875 320.558594 280.257812 C 347.429688 280.257812 374.300781 280.257812 401.171875 280.257812 C 392.332031 307.71875 376.835938 333.050781 356.519531 353.574219 C 329.101562 340.585938 301.683594 327.648438 274.214844 314.660156 C 274.214844 278.964844 274.214844 243.324219 274.214844 207.632812 C 270.390625 207.234375 268.902344 202.96875 268.851562 199.648438 C 268.800781 191.171875 268.851562 182.742188 268.800781 174.265625 C 269 170.300781 264.878906 167.527344 261.25 167.328125 C 261.25 164.847656 261.25 162.371094 261.25 159.890625 C 265.523438 158.453125 269.84375 157.015625 274.117188 155.578125 C 273.867188 152.949219 274.164062 150.175781 275.753906 147.992188 C 276.996094 146.207031 278.734375 144.917969 280.574219 143.730469 C 280.621094 139.863281 280.574219 135.945312 280.621094 132.082031 C 280.671875 130.394531 280.226562 128.558594 278.835938 127.519531 C 277.792969 126.726562 276.449219 126.628906 275.207031 126.476562 C 275.207031 124 275.207031 121.519531 275.207031 119.042969 C 277.34375 119.042969 279.527344 119.042969 281.667969 119.042969 C 281.714844 113.789062 281.617188 108.582031 281.667969 103.328125 C 281.46875 101.742188 283.402344 101.839844 284.296875 101.097656 C 285.441406 99.808594 285.34375 97.675781 284.148438 96.4375 C 283.453125 95.890625 282.507812 95.792969 281.816406 95.296875 C 281.21875 94.503906 281.617188 93.113281 282.609375 92.867188 C 284.097656 92.71875 285.539062 92.816406 287.03125 92.867188 C 285.9375 92.125 284.945312 90.984375 285.144531 89.546875 C 285.191406 88.257812 286.183594 87.316406 287.378906 86.917969 C 285.636719 86.570312 284.84375 84.6875 284.945312 83.050781 C 284.945312 81.316406 285.886719 79.828125 286.234375 78.144531 C 286.234375 76.359375 283.75 77.003906 283.105469 75.664062 C 283.105469 74.972656 283.402344 74.425781 283.949219 74.027344 C 285.390625 73.234375 286.730469 72.246094 288.273438 71.699219 Z M 288.273438 71.699219 "/>
<path style=" stroke:none;fill-rule:evenodd;fill:rgb(78.431373%,0%,0%);fill-opacity:1;" d="M 218.609375 204.535156 C 221.789062 204.535156 225.019531 204.535156 228.199219 204.535156 C 230.636719 207.605469 233.070312 210.675781 235.554688 213.75 C 244.449219 213.699219 253.296875 213.75 262.191406 213.75 C 262.191406 232.378906 262.191406 250.957031 262.191406 269.585938 C 236.351562 269.585938 210.511719 269.585938 184.621094 269.585938 C 184.621094 250.957031 184.621094 232.378906 184.621094 213.75 C 193.515625 213.75 202.363281 213.75 211.257812 213.75 C 213.789062 210.726562 216.175781 207.605469 218.609375 204.535156 Z M 218.609375 204.535156 "/>
<path style=" stroke:none;fill-rule:evenodd;fill:rgb(78.431373%,0%,0%);fill-opacity:1;" d="M 120.015625 384.320312 C 122.5 385.757812 124.984375 387.246094 127.46875 388.683594 C 127.222656 395.820312 126.972656 403.007812 126.722656 410.144531 C 129.707031 404.492188 132.691406 398.894531 135.671875 393.242188 C 138.105469 394.480469 140.542969 395.671875 142.925781 396.910156 C 138.105469 406.230469 133.234375 415.496094 128.414062 424.816406 C 125.582031 423.429688 122.75 421.992188 119.917969 420.601562 C 120.261719 413.367188 120.660156 406.128906 121.007812 398.894531 C 117.777344 404.59375 114.597656 410.242188 111.367188 415.894531 C 108.832031 414.40625 106.347656 412.871094 103.863281 411.335938 C 109.230469 402.363281 114.644531 393.34375 120.015625 384.320312 Z M 120.015625 384.320312 "/>
<path style=" stroke:none;fill-rule:evenodd;fill:rgb(78.431373%,0%,0%);fill-opacity:1;" d="M 319.898438 388.632812 C 322.234375 387.144531 324.566406 385.757812 326.949219 384.320312 C 332.363281 393.335938 337.773438 402.351562 343.136719 411.363281 C 340.605469 412.898438 338.125 414.386719 335.589844 415.921875 C 333.355469 412.109375 331.121094 408.292969 328.886719 404.480469 C 326.351562 405.867188 323.871094 407.253906 321.339844 408.589844 C 323.421875 412.503906 325.558594 416.367188 327.644531 420.28125 C 324.863281 421.667969 322.132812 423.054688 319.351562 424.441406 C 314.636719 415.078125 309.917969 405.667969 305.199219 396.308594 C 307.730469 395.070312 310.214844 393.78125 312.746094 392.542969 C 314.734375 396.257812 316.671875 399.972656 318.609375 403.6875 C 321.089844 402.300781 323.621094 400.964844 326.105469 399.574219 C 324.019531 395.960938 321.933594 392.296875 319.898438 388.632812 Z M 319.898438 388.632812 "/>
<path style=" stroke:none;fill-rule:evenodd;fill:rgb(78.431373%,0%,0%);fill-opacity:1;" d="M 293.386719 401.410156 C 295.921875 400.414062 298.457031 399.375 300.945312 398.382812 C 304.726562 408.160156 308.554688 417.933594 312.335938 427.761719 C 309.402344 428.949219 306.46875 430.140625 303.535156 431.332031 C 298.308594 426.269531 293.136719 421.207031 287.914062 416.097656 C 290.054688 422.25 292.191406 428.40625 294.332031 434.609375 C 291.546875 435.5 288.710938 436.34375 285.925781 437.1875 C 282.742188 427.164062 279.507812 417.140625 276.277344 407.164062 C 279.011719 406.273438 281.746094 405.378906 284.53125 404.535156 C 289.753906 409.449219 294.980469 414.410156 300.199219 419.324219 C 297.914062 413.320312 295.671875 407.363281 293.386719 401.410156 Z M 293.386719 401.410156 "/>
<path style=" stroke:none;fill-rule:evenodd;fill:rgb(78.431373%,0%,0%);fill-opacity:1;" d="M 148.820312 399.507812 C 151.570312 400.546875 154.265625 401.636719 157.011719 402.730469 C 153.214844 412.546875 149.371094 422.3125 145.570312 432.125 C 142.625 430.9375 139.628906 429.847656 136.730469 428.605469 C 140.824219 418.941406 144.773438 409.222656 148.820312 399.507812 Z M 148.820312 399.507812 "/>
<path style=" stroke:none;fill-rule:evenodd;fill:rgb(78.431373%,0%,0%);fill-opacity:1;" d="M 253.925781 401.007812 C 256.96875 400.710938 260.066406 400.363281 263.109375 400.070312 C 264.804688 401.75 266.503906 403.429688 268.199219 405.109375 C 266.203125 405.210938 262.210938 405.503906 262.210938 405.503906 C 262.210938 405.503906 256.722656 402.492188 253.925781 401.007812 Z M 253.925781 401.007812 "/>
<path style=" stroke:none;fill-rule:evenodd;fill:rgb(78.431373%,0%,0%);fill-opacity:1;" d="M 154.570312 435.285156 C 157.558594 425.1875 160.550781 415.039062 163.539062 404.941406 C 166.328125 405.738281 169.066406 406.535156 171.855469 407.378906 C 173.398438 414.394531 174.945312 421.410156 176.488281 428.421875 C 177.984375 422.203125 179.476562 415.984375 180.972656 409.769531 C 183.613281 410.363281 186.300781 410.914062 188.941406 411.507812 C 186.550781 421.757812 184.210938 432.003906 181.816406 442.25 C 178.730469 441.605469 175.59375 440.957031 172.503906 440.261719 C 171.058594 433.148438 169.617188 425.984375 168.121094 418.871094 C 166.425781 425.1875 164.734375 431.507812 163.039062 437.824219 C 160.199219 436.976562 157.410156 436.132812 154.570312 435.285156 Z M 154.570312 435.285156 "/>
<path style=" stroke:none;fill-rule:evenodd;fill:rgb(78.431373%,0%,0%);fill-opacity:1;" d="M 262.191406 410.632812 C 265.019531 409.984375 267.84375 409.339844 270.671875 408.691406 C 273.105469 418.933594 275.535156 429.171875 277.964844 439.414062 C 274.890625 440.109375 271.863281 440.804688 268.789062 441.5 C 266.605469 431.210938 264.371094 420.921875 262.191406 410.632812 Z M 262.191406 410.632812 "/>
<path style=" stroke:none;fill-rule:evenodd;fill:rgb(78.431373%,0%,0%);fill-opacity:1;" d="M 194.644531 412.441406 C 197.421875 412.789062 200.195312 413.132812 202.96875 413.480469 C 202.523438 417.632812 202.027344 421.832031 201.628906 425.984375 C 204.457031 426.230469 207.328125 426.476562 210.152344 426.726562 C 210.5 422.523438 210.847656 418.375 211.144531 414.171875 C 213.867188 414.269531 216.644531 414.421875 219.367188 414.515625 C 218.675781 424.996094 217.980469 435.523438 217.238281 446 C 214.363281 445.851562 211.539062 445.652344 208.667969 445.503906 C 209.015625 441.105469 209.359375 436.707031 209.707031 432.3125 C 206.832031 432.0625 204.007812 431.816406 201.136719 431.566406 C 200.691406 435.964844 200.292969 440.367188 199.847656 444.714844 C 196.777344 444.320312 193.703125 443.972656 190.632812 443.578125 C 192.019531 433.199219 193.359375 422.820312 194.644531 412.441406 Z M 194.644531 412.441406 "/>
<path style=" stroke:none;fill-rule:evenodd;fill:rgb(78.431373%,0%,0%);fill-opacity:1;" d="M 234.394531 414.296875 C 239.34375 413.851562 244.292969 413.355469 249.292969 412.859375 C 254.097656 412.316406 258.800781 417.019531 258.058594 421.816406 C 257.660156 424.34375 255.78125 426.273438 253.652344 427.507812 C 255.335938 427.660156 257.019531 428.003906 258.355469 429.042969 C 261.621094 431.421875 262.367188 436.320312 260.238281 439.636719 C 258.554688 442.457031 255.285156 443.84375 252.167969 444.1875 C 247.066406 444.683594 242.015625 445.128906 236.917969 445.625 C 236.074219 435.183594 235.234375 424.738281 234.394531 414.296875 Z M 242.761719 418.699219 C 243.058594 421.667969 243.355469 424.640625 243.703125 427.558594 C 245.679688 427.214844 248.007812 427.460938 249.59375 425.976562 C 251.871094 423.796875 250.929688 419.246094 247.8125 418.402344 C 246.125 418.15625 244.441406 418.601562 242.761719 418.699219 Z M 244.097656 431.71875 C 244.394531 434.6875 244.691406 437.65625 244.988281 440.628906 C 246.871094 440.28125 248.898438 440.429688 250.632812 439.539062 C 253.652344 437.753906 253.007812 432.558594 249.742188 431.472656 C 247.859375 431.023438 245.976562 431.617188 244.097656 431.71875 Z M 244.097656 431.71875 "/>
</g>
</svg>
